# xmcd
# Copyright (C) 1995-1998 Ti Kan
#
# Track frame offsets:
#       150
#       17977
#       33630
#       52667
#       71769
#       89618
#       107729
#       123801
#       142589
#       161616
#       179596
#       196298
#       215674
#       229884
#       235541
#
# Disc length: 3506 seconds
#
# Revision: 0
# Processed by: cddbd v1.4b42PL1 Copyright (c) Steve Scherf et al.
# Submitted via: CD-Transfer v1.0
#
DISCID=cb0db00f
DTITLE=Roderick Stafford - Flowers From Hitchcock
DYEAR=1999
DGENRE=
TTITLE0=Flowers From Hitchcock
TTITLE1=How Can A Man
TTITLE2=Something In The Moonlight
TTITLE3=Through
TTITLE4=Sooner Or Later
TTITLE5=The Summer Breeze
TTITLE6=Desperado Row
TTITLE7=Bye Moon Goddess
TTITLE8=Something In The Moonlight (Ext. Version)
TTITLE9=Technocowboy
TTITLE10=Alouette
TTITLE11=She's Gone
TTITLE12=Ich Glaub', Ich Hab' Mein Herz Bei Dir Vergessen
TTITLE13=Soul In The Ocean
TTITLE14=How Can A Man (Ext. Version)
EXTD=
EXTT0=
EXTT1=
EXTT2=
EXTT3=
EXTT4=
EXTT5=
EXTT6=
EXTT7=
EXTT8=
EXTT9=
EXTT10=
EXTT11=
EXTT12=
EXTT13=
EXTT14=
PLAYORDER=
